# xmcd CD database file
# Copyright (C) 1993-1998 Ti Kan
#
# Track frame offsets:
#	150
#	20840
#	35674
#	48382
#	61088
#	78497
#	93897
#	105229
#	118838
#	131383
#
# Disc length: 1919 seconds
#
# Revision: 1
# Processed by: cddbd v1.4b41PL1 Copyright (c) Steve Scherf et al.
# Submitted via: CDValet v3.31 - Copyright (c) 1997 Greg Leichner
#
DISCID=7a077d0a
DTITLE=Kelly Clark and The Wild River Band - Rapid Transit
DYEAR=1900
DGENRE=
TTITLE0=Goodbye Anjeanette
TTITLE1=Something
TTITLE2=Are We There Yet Mama
TTITLE3=Maedel's Reel
TTITLE4=Runaway Train
TTITLE5=Much Too Young To Die
TTITLE6=Lost And I'll Never Find My Way
TTITLE7=Here, There And Everywhere
TTITLE8=White Oak Stomp
TTITLE9=Let Me Take You To The Rodeo
EXTD=
EXTT0=
EXTT1=
EXTT2=
EXTT3=
EXTT4=
EXTT5=
EXTT6=
EXTT7=
EXTT8=
EXTT9=
PLAYORDER=
